<svg viewBox="0 0 1081.05 217.36" xmlns:xlink="http://www.w3.org/1999/xlink" xmlns="http://www.w3.org/2000/svg" id="Layer_2">
  <defs>
    <style>
      .cls-1 {
        fill: none;
      }

      .cls-2 {
        fill: url(#linear-gradient-3);
      }

      .cls-3 {
        fill: url(#linear-gradient-2);
      }

      .cls-4 {
        fill: url(#linear-gradient);
      }

      .cls-5 {
        clip-path: url(#clippath-1);
      }

      .cls-6 {
        clip-path: url(#clippath-2);
      }

      .cls-7 {
        fill: #014f7e;
      }

      .cls-8 {
        clip-path: url(#clippath);
      }
    </style>
    <clipPath id="clippath">
      <path d="M138.27,24.29c-.88,4.82.47,9.35,1.6,13.99,1.2,4.96,2.34,9.94,3.87,14.82.9,2.87,1.78,5.74,2.65,8.62,3.39,11.2,6.61,22.45,9.69,33.74,8.62,31.55,5.97,50.03,5.14,54.25.36.71.72,1.41,1.08,2.08,2.35,4.38,5.78,8.22,9.52,11.47,10.87,9.45,28.81,14.23,41.44,5.37,14.26-10.01,15.24-31.29,15.58-47.4-5.66-1.85-11.13-4.38-16.29-7.68-14.95-9.57-26.53-23.82-37.19-37.53-10.85-13.96-20.88-29.08-26.83-45.6-3.74-10.39-2.86-18.25-2.68-19.53-3.82,3.58-6.62,8.1-7.59,13.42" class="cls-1"></path>
    </clipPath>
    <linearGradient gradientUnits="userSpaceOnUse" gradientTransform="translate(-34741.99 -157571.71) rotate(-90) scale(213.09 -213.09)" y2="-163.9" x2="-739.49" y1="-163.9" x1="-740.49" id="linear-gradient">
      <stop stop-color="#8abd01" offset="0"></stop>
      <stop stop-color="#8abd01" offset="1"></stop>
      <stop stop-color="#85ba00" offset="1"></stop>
    </linearGradient>
    <clipPath id="clippath-1">
      <path d="M0,25.47c4.48,4.56,8.53,9.61,12.43,14.67,13.58,17.58,25,36.97,33.37,57.56,10.29,25.3,11.46,54.87,26.64,77.99,4.07,6.2,8.89,11.88,14.44,16.8,3.08,2.73,6.4,5.18,9.88,7.36,13.15,8.26,28.48,12.96,43.86,14.67,19.9,2.21,41.72-.15,58.79-11.34,14.92-9.77,26.67-25.12,31.78-42.24,1.82-6.11,2.88-12.53,3.2-18.87h0c.42-9.2-.81-18.69-2.64-27.71-.3-1.49-.62-2.98-1.05-4.44-.16-.53-.39-1.99-.92-2.33-1.06-.69-.87,3.74-.87,4.26,0,2.39,0,4.78-.04,7.18-.32,16.32-.71,39.11-15.63,49.58-12.63,8.87-30.57,4.09-41.44-5.37-3.74-3.25-7.17-7.09-9.52-11.47-16.74-31.19-31.52-103.33-58.47-128.95-10.7-10.18-25-13.66-39.57-13.65C32.74,9.17,0,25.47,0,25.47" class="cls-1"></path>
    </clipPath>
    <linearGradient gradientUnits="userSpaceOnUse" gradientTransform="translate(-38643.19 -174597.65) rotate(-90) scale(236.22 -236.22)" y2="-164.09" x2="-739.09" y1="-164.09" x1="-740.09" id="linear-gradient-2">
      <stop stop-color="#05202b" offset="0"></stop>
      <stop stop-color="#042637" offset=".21"></stop>
      <stop stop-color="#023857" offset=".6"></stop>
      <stop stop-color="#014f7e" offset="1"></stop>
    </linearGradient>
    <clipPath id="clippath-2">
      <path d="M145.89,10.66s-1.45,8.37,2.65,19.73c5.95,16.53,15.98,31.65,26.83,45.6,10.66,13.71,22.24,27.96,37.19,37.53,16.92,10.83,37.11,13.4,56.77,10.72,6.89-.94,13.59-3.08,19.88-6.03,5.82-2.73,11.31-6.15,16.43-10.02,4.32-3.26,8.41-6.84,12.23-10.67,2.54-2.55-40.23,9.62-85.91-57.58C210.51,8.37,190.21,0,174.73,0c-17.48,0-28.84,10.66-28.84,10.66" class="cls-1"></path>
    </clipPath>
    <linearGradient xlink:href="#linear-gradient-2" gradientTransform="translate(-55263.92 -249638.19) rotate(-90) scale(338.24 -338.24)" y2="-164.08" x2="-738.01" y1="-164.08" x1="-739.01" id="linear-gradient-3"></linearGradient>
  </defs>
  <g id="Capa_1">
    <g>
      <g>
        <path d="M342.53,89.89l3.74-6.34c3.69,2.65,6.64,3.69,10.13,3.69,3.69,0,5.94-1.45,5.94-3.89s-1.6-3.64-6.99-5.14c-8.24-2.25-11.38-5.29-11.38-10.98,0-6.54,5.39-10.93,13.23-10.93,4.59,0,8.39,1.05,12.18,3.44l-3.69,6.29c-3.09-1.8-5.59-2.54-8.38-2.54-3.39,0-5.44,1.25-5.44,3.34s1.45,3.04,6.99,4.74c7.84,2.4,11.38,5.94,11.38,11.43,0,6.84-5.54,11.43-13.83,11.43-5.09,0-10.03-1.65-13.88-4.54Z" class="cls-7"></path>
        <path d="M415.3,81.75h-21.61c.95,3.74,4.14,6.14,8.58,6.14,2.89,0,5.34-.9,7.19-2.65l4.39,4.84c-3.39,3.04-6.84,4.34-11.63,4.34-9.38,0-15.92-6.09-15.92-14.87s6.54-15.27,15.22-15.27c8.14,0,13.98,5.84,13.98,14.03,0,1.85-.05,2.84-.2,3.44ZM408.37,76.11c-.15-3.14-2.94-5.29-6.89-5.29s-6.59,2-7.64,5.29h14.52Z" class="cls-7"></path>
        <path d="M455.99,64.78h6.29v25.46c0,8.33-5.94,13.48-15.42,13.48-5.29,0-9.83-1.35-13.58-4.04l3.64-5.69c3.09,2.15,6.19,3.19,9.73,3.19,5.24,0,8.19-2.7,8.19-7.59v-1.1c-1.95,2.7-5.09,4.14-8.88,4.14-7.89,0-14.02-6.39-14.02-14.52s5.99-13.83,14.02-13.83c3.94,0,6.84,1.2,9.43,3.94l.6-3.44ZM454.94,78.41c0-4.29-3.29-7.49-7.74-7.49s-7.79,3.19-7.79,7.49,3.29,7.54,7.79,7.54,7.74-3.19,7.74-7.54Z" class="cls-7"></path>
        <path d="M501.91,64.78h7.49v29.15h-6.29l-.6-3.69c-2.45,2.79-5.19,4.19-8.83,4.19-7.44,0-11.98-4.74-11.98-12.48v-17.17h7.44v15.37c0,4.69,2.15,7.09,6.14,7.09,4.44,0,6.64-2.99,6.64-8.48v-13.98Z" class="cls-7"></path>
        <path d="M546.39,64.68v7.54c-.95-.15-1.9-.25-2.75-.25-4.74,0-7.14,2.84-7.14,7.19v14.77h-7.44v-29.15h6.24l.6,3.74c2.2-2.45,5.14-3.99,8.68-3.99.6,0,1.2.05,1.8.15Z" class="cls-7"></path>
        <path d="M560.72,79.36c0-8.53,6.74-15.07,15.27-15.07s15.32,6.59,15.32,15.07-6.74,15.07-15.32,15.07-15.27-6.59-15.27-15.07ZM583.72,79.36c0-4.49-3.34-7.79-7.74-7.79s-7.74,3.29-7.74,7.79,3.34,7.79,7.74,7.79,7.74-3.34,7.74-7.79Z" class="cls-7"></path>
        <path d="M607.99,91.29l3.19-5.84c2.5,1.45,5.79,2.4,8.38,2.4,3.24,0,4.94-.85,4.94-2.55,0-1.5-1.4-2.4-5.04-3.04-7.24-1.35-10.38-4.14-10.38-9.18s4.59-8.79,11.53-8.79c4.09,0,7.09.7,10.53,2.55l-3.29,5.99c-2.79-1.45-4.64-1.95-7.24-1.9-2.6.05-4.09.8-4.09,2.15,0,1.5,1.25,2.25,5.14,3.04,7.09,1.5,10.28,4.34,10.28,9.18,0,5.64-4.79,9.13-12.38,9.13-4.29,0-8.53-1.15-11.58-3.14Z" class="cls-7"></path>
      </g>
      <g>
        <path d="M341.98,179v-56.74h19.25v56.24c0,12,7.62,19.25,20.12,19.25s20-7.25,20-19.25v-56.24h19.25v56.74c0,23.12-15.12,37.62-39.24,37.62s-39.37-14.5-39.37-37.62Z" class="cls-7"></path>
        <path d="M508.57,172.25v42.99h-18.62v-38.49c0-11.75-5.37-17.75-15.75-17.75-11.25,0-17.25,7.5-17.25,21.25v34.99h-18.62v-72.98h15.75l1.37,8.5c6.25-6.62,14.12-9.75,22.74-9.75,18.87,0,30.37,11.87,30.37,31.24Z" class="cls-7"></path>
        <path d="M524.31,121.38c0-6,4.87-10.87,10.87-10.87s11,4.87,11,10.87-4.87,10.75-11,10.75-10.87-4.87-10.87-10.75ZM525.94,215.24v-72.98h18.62v72.98h-18.62Z" class="cls-7"></path>
        <path d="M610.04,142.25h21.12l-39.74,75.11-39.74-75.11h21.12l18.62,38.74,18.62-38.74Z" class="cls-7"></path>
        <path d="M703.77,184.74h-54.11c2.38,9.37,10.37,15.37,21.5,15.37,7.25,0,13.37-2.25,18-6.62l11,12.12c-8.5,7.62-17.12,10.87-29.12,10.87-23.49,0-39.87-15.25-39.87-37.24s16.37-38.24,38.12-38.24c20.37,0,34.99,14.62,34.99,35.12,0,4.62-.12,7.12-.5,8.62ZM686.4,170.62c-.38-7.87-7.37-13.25-17.25-13.25s-16.5,5-19.12,13.25h36.37Z" class="cls-7"></path>
        <path d="M761.75,142v18.87c-2.38-.38-4.75-.62-6.87-.62-11.87,0-17.87,7.12-17.87,18v36.99h-18.62v-72.98h15.62l1.5,9.37c5.5-6.12,12.87-10,21.75-10,1.5,0,3,.12,4.5.38Z" class="cls-7"></path>
        <path d="M768.63,208.61l8-14.62c6.25,3.62,14.5,6,20.99,6,8.12,0,12.37-2.12,12.37-6.37,0-3.75-3.5-6-12.62-7.62-18.12-3.37-25.99-10.37-25.99-22.99s11.5-21.99,28.87-21.99c10.25,0,17.75,1.75,26.37,6.37l-8.25,15c-7-3.62-11.62-4.87-18.12-4.75-6.5.12-10.25,2-10.25,5.37,0,3.75,3.12,5.62,12.87,7.62,17.75,3.75,25.74,10.87,25.74,22.99,0,14.12-12,22.87-30.99,22.87-10.75,0-21.37-2.88-28.99-7.87Z" class="cls-7"></path>
        <path d="M841.23,121.38c0-6,4.87-10.87,10.87-10.87s11,4.87,11,10.87-4.87,10.75-11,10.75-10.87-4.87-10.87-10.75ZM842.86,215.24v-72.98h18.62v72.98h-18.62Z" class="cls-7"></path>
        <path d="M925.21,210.99c-4.5,3.62-10.75,5.5-18.37,5.5-15.37,0-24.49-9.25-24.49-24.37l.12-32.74h-10.5v-17.12h10.5v-11.87l18.75-3.37v15.25h19.37v17.12h-19.5v31.62c0,5.25,2.88,8.37,7.87,8.37,3.62,0,5.62-.88,8-2.75l8.25,14.37Z" class="cls-7"></path>
        <path d="M990.57,142.25h15.87v72.98h-15.87l-1.38-8.62c-5.5,5.75-13.37,9.87-22.74,9.87-19.87,0-36.12-16.5-36.12-37.74s16.25-37.74,36.12-37.74c9.37,0,17.25,4.12,22.74,9.87l1.38-8.62ZM987.95,178.75c0-11.25-8.37-19.5-19.37-19.5s-19.37,8.25-19.37,19.5,8.37,19.5,19.37,19.5,19.37-8.37,19.37-19.5Z" class="cls-7"></path>
        <path d="M1021.06,208.61l8-14.62c6.25,3.62,14.5,6,20.99,6,8.12,0,12.37-2.12,12.37-6.37,0-3.75-3.5-6-12.62-7.62-18.12-3.37-25.99-10.37-25.99-22.99s11.5-21.99,28.87-21.99c10.25,0,17.75,1.75,26.37,6.37l-8.25,15c-7-3.62-11.62-4.87-18.12-4.75-6.5.12-10.25,2-10.25,5.37,0,3.75,3.12,5.62,12.87,7.62,17.75,3.75,25.74,10.87,25.74,22.99,0,14.12-12,22.87-30.99,22.87-10.75,0-21.37-2.88-28.99-7.87Z" class="cls-7"></path>
      </g>
      <g class="cls-8">
        <rect transform="translate(-22.3 79.92) rotate(-23.25)" height="189.18" width="149.78" y="-.42" x="108.23" class="cls-4"></rect>
      </g>
      <g class="cls-5">
        <rect transform="translate(-30.48 44.61) rotate(-19.09)" height="272.95" width="289.79" y="-23.52" x="-27.48" class="cls-3"></rect>
      </g>
      <g class="cls-6">
        <rect transform="translate(-7.97 79.5) rotate(-19.09)" height="177.5" width="207.81" y="-25.29" x="128.53" class="cls-2"></rect>
      </g>
    </g>
  </g>
</svg>